<mxfile host="app.diagrams.net" modified="2024-04-09T12:49:39.806Z" agent="Mozilla/5.0 (Windows NT 10.0; Win64; x64) AppleWebKit/537.36 (KHTML, like Gecko) Chrome/123.0.0.0 Safari/537.36" etag="Cxk5LGz3QwBVFg92tz-a" version="24.2.3" type="device">
  <diagram name="Pagina-1" id="hPfG_c1kKP1CDaCPwkiP">
    <mxGraphModel dx="1247" dy="450" grid="1" gridSize="10" guides="1" tooltips="1" connect="1" arrows="1" fold="1" page="1" pageScale="1" pageWidth="1500" pageHeight="500" math="1" shadow="0">
      <root>
        <mxCell id="0" />
        <mxCell id="1" parent="0" />
        <mxCell id="1DI8FMUEm7F4DSgxxOaH-115" value="" style="rounded=0;whiteSpace=wrap;html=1;strokeWidth=2;" vertex="1" parent="1">
          <mxGeometry x="827.5" y="191" width="10" height="10" as="geometry" />
        </mxCell>
        <mxCell id="1DI8FMUEm7F4DSgxxOaH-116" value="" style="rounded=0;whiteSpace=wrap;html=1;strokeWidth=2;" vertex="1" parent="1">
          <mxGeometry x="837.5" y="191" width="10" height="10" as="geometry" />
        </mxCell>
        <mxCell id="1DI8FMUEm7F4DSgxxOaH-117" value="" style="rounded=0;whiteSpace=wrap;html=1;strokeWidth=2;" vertex="1" parent="1">
          <mxGeometry x="847.5" y="191" width="10" height="10" as="geometry" />
        </mxCell>
        <mxCell id="1DI8FMUEm7F4DSgxxOaH-118" value="" style="rounded=0;whiteSpace=wrap;html=1;strokeWidth=2;" vertex="1" parent="1">
          <mxGeometry x="827.5" y="201" width="10" height="10" as="geometry" />
        </mxCell>
        <mxCell id="1DI8FMUEm7F4DSgxxOaH-119" value="" style="rounded=0;whiteSpace=wrap;html=1;strokeWidth=2;" vertex="1" parent="1">
          <mxGeometry x="837.5" y="201" width="10" height="10" as="geometry" />
        </mxCell>
        <mxCell id="1DI8FMUEm7F4DSgxxOaH-120" value="" style="rounded=0;whiteSpace=wrap;html=1;strokeWidth=2;" vertex="1" parent="1">
          <mxGeometry x="847.5" y="201" width="10" height="10" as="geometry" />
        </mxCell>
        <mxCell id="1DI8FMUEm7F4DSgxxOaH-121" value="" style="rounded=0;whiteSpace=wrap;html=1;strokeWidth=2;" vertex="1" parent="1">
          <mxGeometry x="827.5" y="211" width="10" height="10" as="geometry" />
        </mxCell>
        <mxCell id="1DI8FMUEm7F4DSgxxOaH-122" value="" style="rounded=0;whiteSpace=wrap;html=1;strokeWidth=2;" vertex="1" parent="1">
          <mxGeometry x="837.5" y="211" width="10" height="10" as="geometry" />
        </mxCell>
        <mxCell id="1DI8FMUEm7F4DSgxxOaH-123" value="" style="rounded=0;whiteSpace=wrap;html=1;strokeWidth=2;" vertex="1" parent="1">
          <mxGeometry x="847.5" y="211" width="10" height="10" as="geometry" />
        </mxCell>
        <mxCell id="1DI8FMUEm7F4DSgxxOaH-97" value="" style="rounded=0;whiteSpace=wrap;html=1;strokeWidth=2;" vertex="1" parent="1">
          <mxGeometry x="822.5" y="196" width="10" height="10" as="geometry" />
        </mxCell>
        <mxCell id="1DI8FMUEm7F4DSgxxOaH-98" value="" style="rounded=0;whiteSpace=wrap;html=1;strokeWidth=2;" vertex="1" parent="1">
          <mxGeometry x="832.5" y="196" width="10" height="10" as="geometry" />
        </mxCell>
        <mxCell id="1DI8FMUEm7F4DSgxxOaH-99" value="" style="rounded=0;whiteSpace=wrap;html=1;strokeWidth=2;" vertex="1" parent="1">
          <mxGeometry x="842.5" y="196" width="10" height="10" as="geometry" />
        </mxCell>
        <mxCell id="1DI8FMUEm7F4DSgxxOaH-100" value="" style="rounded=0;whiteSpace=wrap;html=1;strokeWidth=2;" vertex="1" parent="1">
          <mxGeometry x="822.5" y="206" width="10" height="10" as="geometry" />
        </mxCell>
        <mxCell id="1DI8FMUEm7F4DSgxxOaH-101" value="" style="rounded=0;whiteSpace=wrap;html=1;strokeWidth=2;" vertex="1" parent="1">
          <mxGeometry x="832.5" y="206" width="10" height="10" as="geometry" />
        </mxCell>
        <mxCell id="1DI8FMUEm7F4DSgxxOaH-102" value="" style="rounded=0;whiteSpace=wrap;html=1;strokeWidth=2;" vertex="1" parent="1">
          <mxGeometry x="842.5" y="206" width="10" height="10" as="geometry" />
        </mxCell>
        <mxCell id="1DI8FMUEm7F4DSgxxOaH-103" value="" style="rounded=0;whiteSpace=wrap;html=1;strokeWidth=2;" vertex="1" parent="1">
          <mxGeometry x="822.5" y="216" width="10" height="10" as="geometry" />
        </mxCell>
        <mxCell id="1DI8FMUEm7F4DSgxxOaH-104" value="" style="rounded=0;whiteSpace=wrap;html=1;strokeWidth=2;" vertex="1" parent="1">
          <mxGeometry x="832.5" y="216" width="10" height="10" as="geometry" />
        </mxCell>
        <mxCell id="1DI8FMUEm7F4DSgxxOaH-105" value="" style="rounded=0;whiteSpace=wrap;html=1;strokeWidth=2;" vertex="1" parent="1">
          <mxGeometry x="842.5" y="216" width="10" height="10" as="geometry" />
        </mxCell>
        <mxCell id="1DI8FMUEm7F4DSgxxOaH-1" value="" style="rounded=0;whiteSpace=wrap;html=1;strokeWidth=2;fillColor=#dae8fc;strokeColor=default;" vertex="1" parent="1">
          <mxGeometry x="700" y="91" width="20" height="20" as="geometry" />
        </mxCell>
        <mxCell id="1DI8FMUEm7F4DSgxxOaH-3" value="" style="rounded=0;whiteSpace=wrap;html=1;strokeWidth=2;" vertex="1" parent="1">
          <mxGeometry x="720" y="91" width="20" height="20" as="geometry" />
        </mxCell>
        <mxCell id="1DI8FMUEm7F4DSgxxOaH-4" value="" style="rounded=0;whiteSpace=wrap;html=1;strokeWidth=2;" vertex="1" parent="1">
          <mxGeometry x="740" y="91" width="20" height="20" as="geometry" />
        </mxCell>
        <mxCell id="1DI8FMUEm7F4DSgxxOaH-5" value="" style="rounded=0;whiteSpace=wrap;html=1;strokeWidth=2;fillColor=#dae8fc;strokeColor=default;" vertex="1" parent="1">
          <mxGeometry x="700" y="111" width="20" height="20" as="geometry" />
        </mxCell>
        <mxCell id="1DI8FMUEm7F4DSgxxOaH-6" value="" style="rounded=0;whiteSpace=wrap;html=1;strokeWidth=2;" vertex="1" parent="1">
          <mxGeometry x="720" y="111" width="20" height="20" as="geometry" />
        </mxCell>
        <mxCell id="1DI8FMUEm7F4DSgxxOaH-7" value="" style="rounded=0;whiteSpace=wrap;html=1;strokeWidth=2;" vertex="1" parent="1">
          <mxGeometry x="740" y="111" width="20" height="20" as="geometry" />
        </mxCell>
        <mxCell id="1DI8FMUEm7F4DSgxxOaH-8" value="" style="rounded=0;whiteSpace=wrap;html=1;strokeWidth=2;fillColor=#dae8fc;strokeColor=default;" vertex="1" parent="1">
          <mxGeometry x="700" y="131" width="20" height="20" as="geometry" />
        </mxCell>
        <mxCell id="1DI8FMUEm7F4DSgxxOaH-9" value="" style="rounded=0;whiteSpace=wrap;html=1;strokeWidth=2;" vertex="1" parent="1">
          <mxGeometry x="720" y="131" width="20" height="20" as="geometry" />
        </mxCell>
        <mxCell id="1DI8FMUEm7F4DSgxxOaH-10" value="" style="rounded=0;whiteSpace=wrap;html=1;strokeWidth=2;" vertex="1" parent="1">
          <mxGeometry x="740" y="131" width="20" height="20" as="geometry" />
        </mxCell>
        <mxCell id="1DI8FMUEm7F4DSgxxOaH-12" value="Tabular data" style="text;html=1;align=center;verticalAlign=middle;whiteSpace=wrap;rounded=0;rotation=-90;" vertex="1" parent="1">
          <mxGeometry x="605" y="106" width="85" height="30" as="geometry" />
        </mxCell>
        <mxCell id="1DI8FMUEm7F4DSgxxOaH-13" value="$$\mu_j$$" style="text;html=1;align=center;verticalAlign=middle;whiteSpace=wrap;rounded=0;" vertex="1" parent="1">
          <mxGeometry x="680" y="151" width="60" height="30" as="geometry" />
        </mxCell>
        <mxCell id="1DI8FMUEm7F4DSgxxOaH-14" value="Image data" style="text;html=1;align=center;verticalAlign=middle;whiteSpace=wrap;rounded=0;rotation=-90;" vertex="1" parent="1">
          <mxGeometry x="607.5" y="225" width="80" height="30" as="geometry" />
        </mxCell>
        <mxCell id="1DI8FMUEm7F4DSgxxOaH-15" value="" style="rounded=0;whiteSpace=wrap;html=1;strokeWidth=2;fillColor=#dae8fc;strokeColor=default;" vertex="1" parent="1">
          <mxGeometry x="830" y="91" width="20" height="20" as="geometry" />
        </mxCell>
        <mxCell id="1DI8FMUEm7F4DSgxxOaH-16" value="" style="rounded=0;whiteSpace=wrap;html=1;strokeWidth=2;fillColor=#dae8fc;strokeColor=default;" vertex="1" parent="1">
          <mxGeometry x="850" y="91" width="20" height="20" as="geometry" />
        </mxCell>
        <mxCell id="1DI8FMUEm7F4DSgxxOaH-17" value="" style="rounded=0;whiteSpace=wrap;html=1;strokeWidth=2;fillColor=#dae8fc;strokeColor=default;" vertex="1" parent="1">
          <mxGeometry x="870" y="91" width="20" height="20" as="geometry" />
        </mxCell>
        <mxCell id="1DI8FMUEm7F4DSgxxOaH-18" value="" style="rounded=0;whiteSpace=wrap;html=1;strokeWidth=2;" vertex="1" parent="1">
          <mxGeometry x="830" y="111" width="20" height="20" as="geometry" />
        </mxCell>
        <mxCell id="1DI8FMUEm7F4DSgxxOaH-19" value="" style="rounded=0;whiteSpace=wrap;html=1;strokeWidth=2;" vertex="1" parent="1">
          <mxGeometry x="850" y="111" width="20" height="20" as="geometry" />
        </mxCell>
        <mxCell id="1DI8FMUEm7F4DSgxxOaH-20" value="" style="rounded=0;whiteSpace=wrap;html=1;strokeWidth=2;" vertex="1" parent="1">
          <mxGeometry x="870" y="111" width="20" height="20" as="geometry" />
        </mxCell>
        <mxCell id="1DI8FMUEm7F4DSgxxOaH-21" value="" style="rounded=0;whiteSpace=wrap;html=1;strokeWidth=2;" vertex="1" parent="1">
          <mxGeometry x="830" y="131" width="20" height="20" as="geometry" />
        </mxCell>
        <mxCell id="1DI8FMUEm7F4DSgxxOaH-22" value="" style="rounded=0;whiteSpace=wrap;html=1;strokeWidth=2;" vertex="1" parent="1">
          <mxGeometry x="850" y="131" width="20" height="20" as="geometry" />
        </mxCell>
        <mxCell id="1DI8FMUEm7F4DSgxxOaH-23" value="" style="rounded=0;whiteSpace=wrap;html=1;strokeWidth=2;" vertex="1" parent="1">
          <mxGeometry x="870" y="131" width="20" height="20" as="geometry" />
        </mxCell>
        <mxCell id="1DI8FMUEm7F4DSgxxOaH-24" value="$$\mu_i$$" style="text;html=1;align=center;verticalAlign=middle;whiteSpace=wrap;rounded=0;" vertex="1" parent="1">
          <mxGeometry x="890" y="86" width="30" height="30" as="geometry" />
        </mxCell>
        <mxCell id="1DI8FMUEm7F4DSgxxOaH-71" value="" style="rounded=0;whiteSpace=wrap;html=1;strokeWidth=2;fillColor=#dae8fc;strokeColor=default;" vertex="1" parent="1">
          <mxGeometry x="817.5" y="201" width="10" height="10" as="geometry" />
        </mxCell>
        <mxCell id="1DI8FMUEm7F4DSgxxOaH-80" value="" style="rounded=0;whiteSpace=wrap;html=1;strokeWidth=2;fillColor=#dae8fc;strokeColor=default;" vertex="1" parent="1">
          <mxGeometry x="827.5" y="201" width="10" height="10" as="geometry" />
        </mxCell>
        <mxCell id="1DI8FMUEm7F4DSgxxOaH-81" value="" style="rounded=0;whiteSpace=wrap;html=1;strokeWidth=2;fillColor=#dae8fc;strokeColor=default;" vertex="1" parent="1">
          <mxGeometry x="837.5" y="201" width="10" height="10" as="geometry" />
        </mxCell>
        <mxCell id="1DI8FMUEm7F4DSgxxOaH-82" value="" style="rounded=0;whiteSpace=wrap;html=1;strokeWidth=2;fillColor=#dae8fc;strokeColor=default;" vertex="1" parent="1">
          <mxGeometry x="817.5" y="211" width="10" height="10" as="geometry" />
        </mxCell>
        <mxCell id="1DI8FMUEm7F4DSgxxOaH-83" value="" style="rounded=0;whiteSpace=wrap;html=1;strokeWidth=2;fillColor=#dae8fc;strokeColor=default;" vertex="1" parent="1">
          <mxGeometry x="827.5" y="211" width="10" height="10" as="geometry" />
        </mxCell>
        <mxCell id="1DI8FMUEm7F4DSgxxOaH-84" value="" style="rounded=0;whiteSpace=wrap;html=1;strokeWidth=2;fillColor=#dae8fc;strokeColor=default;" vertex="1" parent="1">
          <mxGeometry x="837.5" y="211" width="10" height="10" as="geometry" />
        </mxCell>
        <mxCell id="1DI8FMUEm7F4DSgxxOaH-85" value="" style="rounded=0;whiteSpace=wrap;html=1;strokeWidth=2;fillColor=#dae8fc;strokeColor=default;" vertex="1" parent="1">
          <mxGeometry x="817.5" y="221" width="10" height="10" as="geometry" />
        </mxCell>
        <mxCell id="1DI8FMUEm7F4DSgxxOaH-86" value="" style="rounded=0;whiteSpace=wrap;html=1;strokeWidth=2;fillColor=#dae8fc;strokeColor=default;" vertex="1" parent="1">
          <mxGeometry x="827.5" y="221" width="10" height="10" as="geometry" />
        </mxCell>
        <mxCell id="1DI8FMUEm7F4DSgxxOaH-87" value="" style="rounded=0;whiteSpace=wrap;html=1;strokeWidth=2;fillColor=#dae8fc;strokeColor=default;" vertex="1" parent="1">
          <mxGeometry x="837.5" y="221" width="10" height="10" as="geometry" />
        </mxCell>
        <mxCell id="1DI8FMUEm7F4DSgxxOaH-124" value="" style="rounded=0;whiteSpace=wrap;html=1;strokeWidth=2;" vertex="1" parent="1">
          <mxGeometry x="877.5" y="191" width="10" height="10" as="geometry" />
        </mxCell>
        <mxCell id="1DI8FMUEm7F4DSgxxOaH-125" value="" style="rounded=0;whiteSpace=wrap;html=1;strokeWidth=2;" vertex="1" parent="1">
          <mxGeometry x="887.5" y="191" width="10" height="10" as="geometry" />
        </mxCell>
        <mxCell id="1DI8FMUEm7F4DSgxxOaH-126" value="" style="rounded=0;whiteSpace=wrap;html=1;strokeWidth=2;" vertex="1" parent="1">
          <mxGeometry x="897.5" y="191" width="10" height="10" as="geometry" />
        </mxCell>
        <mxCell id="1DI8FMUEm7F4DSgxxOaH-127" value="" style="rounded=0;whiteSpace=wrap;html=1;strokeWidth=2;" vertex="1" parent="1">
          <mxGeometry x="877.5" y="201" width="10" height="10" as="geometry" />
        </mxCell>
        <mxCell id="1DI8FMUEm7F4DSgxxOaH-128" value="" style="rounded=0;whiteSpace=wrap;html=1;strokeWidth=2;" vertex="1" parent="1">
          <mxGeometry x="887.5" y="201" width="10" height="10" as="geometry" />
        </mxCell>
        <mxCell id="1DI8FMUEm7F4DSgxxOaH-129" value="" style="rounded=0;whiteSpace=wrap;html=1;strokeWidth=2;" vertex="1" parent="1">
          <mxGeometry x="897.5" y="201" width="10" height="10" as="geometry" />
        </mxCell>
        <mxCell id="1DI8FMUEm7F4DSgxxOaH-130" value="" style="rounded=0;whiteSpace=wrap;html=1;strokeWidth=2;" vertex="1" parent="1">
          <mxGeometry x="877.5" y="211" width="10" height="10" as="geometry" />
        </mxCell>
        <mxCell id="1DI8FMUEm7F4DSgxxOaH-131" value="" style="rounded=0;whiteSpace=wrap;html=1;strokeWidth=2;" vertex="1" parent="1">
          <mxGeometry x="887.5" y="211" width="10" height="10" as="geometry" />
        </mxCell>
        <mxCell id="1DI8FMUEm7F4DSgxxOaH-132" value="" style="rounded=0;whiteSpace=wrap;html=1;strokeWidth=2;" vertex="1" parent="1">
          <mxGeometry x="897.5" y="211" width="10" height="10" as="geometry" />
        </mxCell>
        <mxCell id="1DI8FMUEm7F4DSgxxOaH-133" value="" style="rounded=0;whiteSpace=wrap;html=1;strokeWidth=2;" vertex="1" parent="1">
          <mxGeometry x="872.5" y="196" width="10" height="10" as="geometry" />
        </mxCell>
        <mxCell id="1DI8FMUEm7F4DSgxxOaH-134" value="" style="rounded=0;whiteSpace=wrap;html=1;strokeWidth=2;" vertex="1" parent="1">
          <mxGeometry x="882.5" y="196" width="10" height="10" as="geometry" />
        </mxCell>
        <mxCell id="1DI8FMUEm7F4DSgxxOaH-135" value="" style="rounded=0;whiteSpace=wrap;html=1;strokeWidth=2;" vertex="1" parent="1">
          <mxGeometry x="892.5" y="196" width="10" height="10" as="geometry" />
        </mxCell>
        <mxCell id="1DI8FMUEm7F4DSgxxOaH-136" value="" style="rounded=0;whiteSpace=wrap;html=1;strokeWidth=2;" vertex="1" parent="1">
          <mxGeometry x="872.5" y="206" width="10" height="10" as="geometry" />
        </mxCell>
        <mxCell id="1DI8FMUEm7F4DSgxxOaH-137" value="" style="rounded=0;whiteSpace=wrap;html=1;strokeWidth=2;" vertex="1" parent="1">
          <mxGeometry x="882.5" y="206" width="10" height="10" as="geometry" />
        </mxCell>
        <mxCell id="1DI8FMUEm7F4DSgxxOaH-138" value="" style="rounded=0;whiteSpace=wrap;html=1;strokeWidth=2;" vertex="1" parent="1">
          <mxGeometry x="892.5" y="206" width="10" height="10" as="geometry" />
        </mxCell>
        <mxCell id="1DI8FMUEm7F4DSgxxOaH-139" value="" style="rounded=0;whiteSpace=wrap;html=1;strokeWidth=2;" vertex="1" parent="1">
          <mxGeometry x="872.5" y="216" width="10" height="10" as="geometry" />
        </mxCell>
        <mxCell id="1DI8FMUEm7F4DSgxxOaH-140" value="" style="rounded=0;whiteSpace=wrap;html=1;strokeWidth=2;" vertex="1" parent="1">
          <mxGeometry x="882.5" y="216" width="10" height="10" as="geometry" />
        </mxCell>
        <mxCell id="1DI8FMUEm7F4DSgxxOaH-141" value="" style="rounded=0;whiteSpace=wrap;html=1;strokeWidth=2;" vertex="1" parent="1">
          <mxGeometry x="892.5" y="216" width="10" height="10" as="geometry" />
        </mxCell>
        <mxCell id="1DI8FMUEm7F4DSgxxOaH-142" value="" style="rounded=0;whiteSpace=wrap;html=1;strokeWidth=2;fillColor=#dae8fc;strokeColor=default;" vertex="1" parent="1">
          <mxGeometry x="867.5" y="201" width="10" height="10" as="geometry" />
        </mxCell>
        <mxCell id="1DI8FMUEm7F4DSgxxOaH-143" value="" style="rounded=0;whiteSpace=wrap;html=1;strokeWidth=2;fillColor=#dae8fc;strokeColor=default;" vertex="1" parent="1">
          <mxGeometry x="877.5" y="201" width="10" height="10" as="geometry" />
        </mxCell>
        <mxCell id="1DI8FMUEm7F4DSgxxOaH-144" value="" style="rounded=0;whiteSpace=wrap;html=1;strokeWidth=2;fillColor=#dae8fc;strokeColor=default;" vertex="1" parent="1">
          <mxGeometry x="887.5" y="201" width="10" height="10" as="geometry" />
        </mxCell>
        <mxCell id="1DI8FMUEm7F4DSgxxOaH-145" value="" style="rounded=0;whiteSpace=wrap;html=1;strokeWidth=2;fillColor=#dae8fc;strokeColor=default;" vertex="1" parent="1">
          <mxGeometry x="867.5" y="211" width="10" height="10" as="geometry" />
        </mxCell>
        <mxCell id="1DI8FMUEm7F4DSgxxOaH-146" value="" style="rounded=0;whiteSpace=wrap;html=1;strokeWidth=2;fillColor=#dae8fc;strokeColor=default;" vertex="1" parent="1">
          <mxGeometry x="877.5" y="211" width="10" height="10" as="geometry" />
        </mxCell>
        <mxCell id="1DI8FMUEm7F4DSgxxOaH-147" value="" style="rounded=0;whiteSpace=wrap;html=1;strokeWidth=2;fillColor=#dae8fc;strokeColor=default;" vertex="1" parent="1">
          <mxGeometry x="887.5" y="211" width="10" height="10" as="geometry" />
        </mxCell>
        <mxCell id="1DI8FMUEm7F4DSgxxOaH-148" value="" style="rounded=0;whiteSpace=wrap;html=1;strokeWidth=2;fillColor=#dae8fc;strokeColor=default;" vertex="1" parent="1">
          <mxGeometry x="867.5" y="221" width="10" height="10" as="geometry" />
        </mxCell>
        <mxCell id="1DI8FMUEm7F4DSgxxOaH-149" value="" style="rounded=0;whiteSpace=wrap;html=1;strokeWidth=2;fillColor=#dae8fc;strokeColor=default;" vertex="1" parent="1">
          <mxGeometry x="877.5" y="221" width="10" height="10" as="geometry" />
        </mxCell>
        <mxCell id="1DI8FMUEm7F4DSgxxOaH-150" value="" style="rounded=0;whiteSpace=wrap;html=1;strokeWidth=2;fillColor=#dae8fc;strokeColor=default;" vertex="1" parent="1">
          <mxGeometry x="887.5" y="221" width="10" height="10" as="geometry" />
        </mxCell>
        <mxCell id="1DI8FMUEm7F4DSgxxOaH-151" value="" style="rounded=0;whiteSpace=wrap;html=1;strokeWidth=2;fillColor=#dae8fc;strokeColor=default;" vertex="1" parent="1">
          <mxGeometry x="690" y="226" width="10" height="10" as="geometry" />
        </mxCell>
        <mxCell id="1DI8FMUEm7F4DSgxxOaH-152" value="" style="rounded=0;whiteSpace=wrap;html=1;strokeWidth=2;fillColor=#dae8fc;strokeColor=default;" vertex="1" parent="1">
          <mxGeometry x="700" y="226" width="10" height="10" as="geometry" />
        </mxCell>
        <mxCell id="1DI8FMUEm7F4DSgxxOaH-153" value="" style="rounded=0;whiteSpace=wrap;html=1;strokeWidth=2;fillColor=#dae8fc;strokeColor=default;" vertex="1" parent="1">
          <mxGeometry x="710" y="226" width="10" height="10" as="geometry" />
        </mxCell>
        <mxCell id="1DI8FMUEm7F4DSgxxOaH-154" value="" style="rounded=0;whiteSpace=wrap;html=1;strokeWidth=2;fillColor=#dae8fc;strokeColor=default;" vertex="1" parent="1">
          <mxGeometry x="690" y="236" width="10" height="10" as="geometry" />
        </mxCell>
        <mxCell id="1DI8FMUEm7F4DSgxxOaH-155" value="" style="rounded=0;whiteSpace=wrap;html=1;strokeWidth=2;fillColor=#dae8fc;strokeColor=default;" vertex="1" parent="1">
          <mxGeometry x="700" y="236" width="10" height="10" as="geometry" />
        </mxCell>
        <mxCell id="1DI8FMUEm7F4DSgxxOaH-156" value="" style="rounded=0;whiteSpace=wrap;html=1;strokeWidth=2;fillColor=#dae8fc;strokeColor=default;" vertex="1" parent="1">
          <mxGeometry x="710" y="236" width="10" height="10" as="geometry" />
        </mxCell>
        <mxCell id="1DI8FMUEm7F4DSgxxOaH-157" value="" style="rounded=0;whiteSpace=wrap;html=1;strokeWidth=2;fillColor=#dae8fc;strokeColor=default;" vertex="1" parent="1">
          <mxGeometry x="690" y="246" width="10" height="10" as="geometry" />
        </mxCell>
        <mxCell id="1DI8FMUEm7F4DSgxxOaH-158" value="" style="rounded=0;whiteSpace=wrap;html=1;strokeWidth=2;fillColor=#dae8fc;strokeColor=default;" vertex="1" parent="1">
          <mxGeometry x="700" y="246" width="10" height="10" as="geometry" />
        </mxCell>
        <mxCell id="1DI8FMUEm7F4DSgxxOaH-159" value="" style="rounded=0;whiteSpace=wrap;html=1;strokeWidth=2;fillColor=#dae8fc;strokeColor=default;" vertex="1" parent="1">
          <mxGeometry x="710" y="246" width="10" height="10" as="geometry" />
        </mxCell>
        <mxCell id="1DI8FMUEm7F4DSgxxOaH-160" value="" style="rounded=0;whiteSpace=wrap;html=1;strokeWidth=2;fillColor=#dae8fc;strokeColor=default;" vertex="1" parent="1">
          <mxGeometry x="685" y="231" width="10" height="10" as="geometry" />
        </mxCell>
        <mxCell id="1DI8FMUEm7F4DSgxxOaH-161" value="" style="rounded=0;whiteSpace=wrap;html=1;strokeWidth=2;fillColor=#dae8fc;strokeColor=default;" vertex="1" parent="1">
          <mxGeometry x="695" y="231" width="10" height="10" as="geometry" />
        </mxCell>
        <mxCell id="1DI8FMUEm7F4DSgxxOaH-162" value="" style="rounded=0;whiteSpace=wrap;html=1;strokeWidth=2;fillColor=#dae8fc;strokeColor=default;" vertex="1" parent="1">
          <mxGeometry x="705" y="231" width="10" height="10" as="geometry" />
        </mxCell>
        <mxCell id="1DI8FMUEm7F4DSgxxOaH-163" value="" style="rounded=0;whiteSpace=wrap;html=1;strokeWidth=2;fillColor=#dae8fc;strokeColor=default;" vertex="1" parent="1">
          <mxGeometry x="685" y="241" width="10" height="10" as="geometry" />
        </mxCell>
        <mxCell id="1DI8FMUEm7F4DSgxxOaH-164" value="" style="rounded=0;whiteSpace=wrap;html=1;strokeWidth=2;fillColor=#dae8fc;strokeColor=default;" vertex="1" parent="1">
          <mxGeometry x="695" y="241" width="10" height="10" as="geometry" />
        </mxCell>
        <mxCell id="1DI8FMUEm7F4DSgxxOaH-165" value="" style="rounded=0;whiteSpace=wrap;html=1;strokeWidth=2;fillColor=#dae8fc;strokeColor=default;" vertex="1" parent="1">
          <mxGeometry x="705" y="241" width="10" height="10" as="geometry" />
        </mxCell>
        <mxCell id="1DI8FMUEm7F4DSgxxOaH-166" value="" style="rounded=0;whiteSpace=wrap;html=1;strokeWidth=2;fillColor=#dae8fc;strokeColor=default;" vertex="1" parent="1">
          <mxGeometry x="685" y="251" width="10" height="10" as="geometry" />
        </mxCell>
        <mxCell id="1DI8FMUEm7F4DSgxxOaH-167" value="" style="rounded=0;whiteSpace=wrap;html=1;strokeWidth=2;fillColor=#dae8fc;strokeColor=default;" vertex="1" parent="1">
          <mxGeometry x="695" y="251" width="10" height="10" as="geometry" />
        </mxCell>
        <mxCell id="1DI8FMUEm7F4DSgxxOaH-168" value="" style="rounded=0;whiteSpace=wrap;html=1;strokeWidth=2;fillColor=#dae8fc;strokeColor=default;" vertex="1" parent="1">
          <mxGeometry x="705" y="251" width="10" height="10" as="geometry" />
        </mxCell>
        <mxCell id="1DI8FMUEm7F4DSgxxOaH-169" value="" style="rounded=0;whiteSpace=wrap;html=1;strokeWidth=2;fillColor=#dae8fc;strokeColor=default;" vertex="1" parent="1">
          <mxGeometry x="680" y="236" width="10" height="10" as="geometry" />
        </mxCell>
        <mxCell id="1DI8FMUEm7F4DSgxxOaH-170" value="" style="rounded=0;whiteSpace=wrap;html=1;strokeWidth=2;fillColor=#dae8fc;strokeColor=default;" vertex="1" parent="1">
          <mxGeometry x="690" y="236" width="10" height="10" as="geometry" />
        </mxCell>
        <mxCell id="1DI8FMUEm7F4DSgxxOaH-171" value="" style="rounded=0;whiteSpace=wrap;html=1;strokeWidth=2;fillColor=#dae8fc;strokeColor=default;" vertex="1" parent="1">
          <mxGeometry x="700" y="236" width="10" height="10" as="geometry" />
        </mxCell>
        <mxCell id="1DI8FMUEm7F4DSgxxOaH-172" value="" style="rounded=0;whiteSpace=wrap;html=1;strokeWidth=2;fillColor=#dae8fc;strokeColor=default;" vertex="1" parent="1">
          <mxGeometry x="680" y="246" width="10" height="10" as="geometry" />
        </mxCell>
        <mxCell id="1DI8FMUEm7F4DSgxxOaH-173" value="" style="rounded=0;whiteSpace=wrap;html=1;strokeWidth=2;fillColor=#dae8fc;strokeColor=default;" vertex="1" parent="1">
          <mxGeometry x="690" y="246" width="10" height="10" as="geometry" />
        </mxCell>
        <mxCell id="1DI8FMUEm7F4DSgxxOaH-174" value="" style="rounded=0;whiteSpace=wrap;html=1;strokeWidth=2;fillColor=#dae8fc;strokeColor=default;" vertex="1" parent="1">
          <mxGeometry x="700" y="246" width="10" height="10" as="geometry" />
        </mxCell>
        <mxCell id="1DI8FMUEm7F4DSgxxOaH-175" value="" style="rounded=0;whiteSpace=wrap;html=1;strokeWidth=2;fillColor=#dae8fc;strokeColor=default;" vertex="1" parent="1">
          <mxGeometry x="680" y="256" width="10" height="10" as="geometry" />
        </mxCell>
        <mxCell id="1DI8FMUEm7F4DSgxxOaH-176" value="" style="rounded=0;whiteSpace=wrap;html=1;strokeWidth=2;fillColor=#dae8fc;strokeColor=default;" vertex="1" parent="1">
          <mxGeometry x="690" y="256" width="10" height="10" as="geometry" />
        </mxCell>
        <mxCell id="1DI8FMUEm7F4DSgxxOaH-177" value="" style="rounded=0;whiteSpace=wrap;html=1;strokeWidth=2;fillColor=#dae8fc;strokeColor=default;" vertex="1" parent="1">
          <mxGeometry x="700" y="256" width="10" height="10" as="geometry" />
        </mxCell>
        <mxCell id="1DI8FMUEm7F4DSgxxOaH-178" value="" style="rounded=0;whiteSpace=wrap;html=1;strokeWidth=2;" vertex="1" parent="1">
          <mxGeometry x="740" y="226" width="10" height="10" as="geometry" />
        </mxCell>
        <mxCell id="1DI8FMUEm7F4DSgxxOaH-179" value="" style="rounded=0;whiteSpace=wrap;html=1;strokeWidth=2;" vertex="1" parent="1">
          <mxGeometry x="750" y="226" width="10" height="10" as="geometry" />
        </mxCell>
        <mxCell id="1DI8FMUEm7F4DSgxxOaH-180" value="" style="rounded=0;whiteSpace=wrap;html=1;strokeWidth=2;" vertex="1" parent="1">
          <mxGeometry x="760" y="226" width="10" height="10" as="geometry" />
        </mxCell>
        <mxCell id="1DI8FMUEm7F4DSgxxOaH-181" value="" style="rounded=0;whiteSpace=wrap;html=1;strokeWidth=2;" vertex="1" parent="1">
          <mxGeometry x="740" y="236" width="10" height="10" as="geometry" />
        </mxCell>
        <mxCell id="1DI8FMUEm7F4DSgxxOaH-182" value="" style="rounded=0;whiteSpace=wrap;html=1;strokeWidth=2;" vertex="1" parent="1">
          <mxGeometry x="750" y="236" width="10" height="10" as="geometry" />
        </mxCell>
        <mxCell id="1DI8FMUEm7F4DSgxxOaH-183" value="" style="rounded=0;whiteSpace=wrap;html=1;strokeWidth=2;" vertex="1" parent="1">
          <mxGeometry x="760" y="236" width="10" height="10" as="geometry" />
        </mxCell>
        <mxCell id="1DI8FMUEm7F4DSgxxOaH-184" value="" style="rounded=0;whiteSpace=wrap;html=1;strokeWidth=2;" vertex="1" parent="1">
          <mxGeometry x="740" y="246" width="10" height="10" as="geometry" />
        </mxCell>
        <mxCell id="1DI8FMUEm7F4DSgxxOaH-185" value="" style="rounded=0;whiteSpace=wrap;html=1;strokeWidth=2;" vertex="1" parent="1">
          <mxGeometry x="750" y="246" width="10" height="10" as="geometry" />
        </mxCell>
        <mxCell id="1DI8FMUEm7F4DSgxxOaH-186" value="" style="rounded=0;whiteSpace=wrap;html=1;strokeWidth=2;" vertex="1" parent="1">
          <mxGeometry x="760" y="246" width="10" height="10" as="geometry" />
        </mxCell>
        <mxCell id="1DI8FMUEm7F4DSgxxOaH-187" value="" style="rounded=0;whiteSpace=wrap;html=1;strokeWidth=2;" vertex="1" parent="1">
          <mxGeometry x="735" y="231" width="10" height="10" as="geometry" />
        </mxCell>
        <mxCell id="1DI8FMUEm7F4DSgxxOaH-188" value="" style="rounded=0;whiteSpace=wrap;html=1;strokeWidth=2;" vertex="1" parent="1">
          <mxGeometry x="745" y="231" width="10" height="10" as="geometry" />
        </mxCell>
        <mxCell id="1DI8FMUEm7F4DSgxxOaH-189" value="" style="rounded=0;whiteSpace=wrap;html=1;strokeWidth=2;" vertex="1" parent="1">
          <mxGeometry x="755" y="231" width="10" height="10" as="geometry" />
        </mxCell>
        <mxCell id="1DI8FMUEm7F4DSgxxOaH-190" value="" style="rounded=0;whiteSpace=wrap;html=1;strokeWidth=2;" vertex="1" parent="1">
          <mxGeometry x="735" y="241" width="10" height="10" as="geometry" />
        </mxCell>
        <mxCell id="1DI8FMUEm7F4DSgxxOaH-191" value="" style="rounded=0;whiteSpace=wrap;html=1;strokeWidth=2;" vertex="1" parent="1">
          <mxGeometry x="745" y="241" width="10" height="10" as="geometry" />
        </mxCell>
        <mxCell id="1DI8FMUEm7F4DSgxxOaH-192" value="" style="rounded=0;whiteSpace=wrap;html=1;strokeWidth=2;" vertex="1" parent="1">
          <mxGeometry x="755" y="241" width="10" height="10" as="geometry" />
        </mxCell>
        <mxCell id="1DI8FMUEm7F4DSgxxOaH-193" value="" style="rounded=0;whiteSpace=wrap;html=1;strokeWidth=2;" vertex="1" parent="1">
          <mxGeometry x="735" y="251" width="10" height="10" as="geometry" />
        </mxCell>
        <mxCell id="1DI8FMUEm7F4DSgxxOaH-194" value="" style="rounded=0;whiteSpace=wrap;html=1;strokeWidth=2;" vertex="1" parent="1">
          <mxGeometry x="745" y="251" width="10" height="10" as="geometry" />
        </mxCell>
        <mxCell id="1DI8FMUEm7F4DSgxxOaH-195" value="" style="rounded=0;whiteSpace=wrap;html=1;strokeWidth=2;" vertex="1" parent="1">
          <mxGeometry x="755" y="251" width="10" height="10" as="geometry" />
        </mxCell>
        <mxCell id="1DI8FMUEm7F4DSgxxOaH-196" value="" style="rounded=0;whiteSpace=wrap;html=1;strokeWidth=2;" vertex="1" parent="1">
          <mxGeometry x="730" y="236" width="10" height="10" as="geometry" />
        </mxCell>
        <mxCell id="1DI8FMUEm7F4DSgxxOaH-197" value="" style="rounded=0;whiteSpace=wrap;html=1;strokeWidth=2;" vertex="1" parent="1">
          <mxGeometry x="740" y="236" width="10" height="10" as="geometry" />
        </mxCell>
        <mxCell id="1DI8FMUEm7F4DSgxxOaH-198" value="" style="rounded=0;whiteSpace=wrap;html=1;strokeWidth=2;" vertex="1" parent="1">
          <mxGeometry x="750" y="236" width="10" height="10" as="geometry" />
        </mxCell>
        <mxCell id="1DI8FMUEm7F4DSgxxOaH-199" value="" style="rounded=0;whiteSpace=wrap;html=1;strokeWidth=2;" vertex="1" parent="1">
          <mxGeometry x="730" y="246" width="10" height="10" as="geometry" />
        </mxCell>
        <mxCell id="1DI8FMUEm7F4DSgxxOaH-200" value="" style="rounded=0;whiteSpace=wrap;html=1;strokeWidth=2;" vertex="1" parent="1">
          <mxGeometry x="740" y="246" width="10" height="10" as="geometry" />
        </mxCell>
        <mxCell id="1DI8FMUEm7F4DSgxxOaH-201" value="" style="rounded=0;whiteSpace=wrap;html=1;strokeWidth=2;" vertex="1" parent="1">
          <mxGeometry x="750" y="246" width="10" height="10" as="geometry" />
        </mxCell>
        <mxCell id="1DI8FMUEm7F4DSgxxOaH-202" value="" style="rounded=0;whiteSpace=wrap;html=1;strokeWidth=2;" vertex="1" parent="1">
          <mxGeometry x="730" y="256" width="10" height="10" as="geometry" />
        </mxCell>
        <mxCell id="1DI8FMUEm7F4DSgxxOaH-203" value="" style="rounded=0;whiteSpace=wrap;html=1;strokeWidth=2;" vertex="1" parent="1">
          <mxGeometry x="740" y="256" width="10" height="10" as="geometry" />
        </mxCell>
        <mxCell id="1DI8FMUEm7F4DSgxxOaH-204" value="" style="rounded=0;whiteSpace=wrap;html=1;strokeWidth=2;" vertex="1" parent="1">
          <mxGeometry x="750" y="256" width="10" height="10" as="geometry" />
        </mxCell>
        <mxCell id="1DI8FMUEm7F4DSgxxOaH-205" value="" style="rounded=0;whiteSpace=wrap;html=1;strokeWidth=2;" vertex="1" parent="1">
          <mxGeometry x="822.5" y="251" width="10" height="10" as="geometry" />
        </mxCell>
        <mxCell id="1DI8FMUEm7F4DSgxxOaH-206" value="" style="rounded=0;whiteSpace=wrap;html=1;strokeWidth=2;" vertex="1" parent="1">
          <mxGeometry x="832.5" y="251" width="10" height="10" as="geometry" />
        </mxCell>
        <mxCell id="1DI8FMUEm7F4DSgxxOaH-207" value="" style="rounded=0;whiteSpace=wrap;html=1;strokeWidth=2;" vertex="1" parent="1">
          <mxGeometry x="842.5" y="251" width="10" height="10" as="geometry" />
        </mxCell>
        <mxCell id="1DI8FMUEm7F4DSgxxOaH-208" value="" style="rounded=0;whiteSpace=wrap;html=1;strokeWidth=2;" vertex="1" parent="1">
          <mxGeometry x="822.5" y="261" width="10" height="10" as="geometry" />
        </mxCell>
        <mxCell id="1DI8FMUEm7F4DSgxxOaH-209" value="" style="rounded=0;whiteSpace=wrap;html=1;strokeWidth=2;" vertex="1" parent="1">
          <mxGeometry x="832.5" y="261" width="10" height="10" as="geometry" />
        </mxCell>
        <mxCell id="1DI8FMUEm7F4DSgxxOaH-210" value="" style="rounded=0;whiteSpace=wrap;html=1;strokeWidth=2;" vertex="1" parent="1">
          <mxGeometry x="842.5" y="261" width="10" height="10" as="geometry" />
        </mxCell>
        <mxCell id="1DI8FMUEm7F4DSgxxOaH-211" value="" style="rounded=0;whiteSpace=wrap;html=1;strokeWidth=2;" vertex="1" parent="1">
          <mxGeometry x="822.5" y="271" width="10" height="10" as="geometry" />
        </mxCell>
        <mxCell id="1DI8FMUEm7F4DSgxxOaH-212" value="" style="rounded=0;whiteSpace=wrap;html=1;strokeWidth=2;" vertex="1" parent="1">
          <mxGeometry x="832.5" y="271" width="10" height="10" as="geometry" />
        </mxCell>
        <mxCell id="1DI8FMUEm7F4DSgxxOaH-213" value="" style="rounded=0;whiteSpace=wrap;html=1;strokeWidth=2;fillColor=#dae8fc;strokeColor=default;" vertex="1" parent="1">
          <mxGeometry x="842.5" y="271" width="10" height="10" as="geometry" />
        </mxCell>
        <mxCell id="1DI8FMUEm7F4DSgxxOaH-214" value="" style="rounded=0;whiteSpace=wrap;html=1;strokeWidth=2;" vertex="1" parent="1">
          <mxGeometry x="817.5" y="256" width="10" height="10" as="geometry" />
        </mxCell>
        <mxCell id="1DI8FMUEm7F4DSgxxOaH-215" value="" style="rounded=0;whiteSpace=wrap;html=1;strokeWidth=2;" vertex="1" parent="1">
          <mxGeometry x="827.5" y="256" width="10" height="10" as="geometry" />
        </mxCell>
        <mxCell id="1DI8FMUEm7F4DSgxxOaH-216" value="" style="rounded=0;whiteSpace=wrap;html=1;strokeWidth=2;" vertex="1" parent="1">
          <mxGeometry x="837.5" y="256" width="10" height="10" as="geometry" />
        </mxCell>
        <mxCell id="1DI8FMUEm7F4DSgxxOaH-217" value="" style="rounded=0;whiteSpace=wrap;html=1;strokeWidth=2;" vertex="1" parent="1">
          <mxGeometry x="817.5" y="266" width="10" height="10" as="geometry" />
        </mxCell>
        <mxCell id="1DI8FMUEm7F4DSgxxOaH-218" value="" style="rounded=0;whiteSpace=wrap;html=1;strokeWidth=2;" vertex="1" parent="1">
          <mxGeometry x="827.5" y="266" width="10" height="10" as="geometry" />
        </mxCell>
        <mxCell id="1DI8FMUEm7F4DSgxxOaH-219" value="" style="rounded=0;whiteSpace=wrap;html=1;strokeWidth=2;" vertex="1" parent="1">
          <mxGeometry x="837.5" y="266" width="10" height="10" as="geometry" />
        </mxCell>
        <mxCell id="1DI8FMUEm7F4DSgxxOaH-220" value="" style="rounded=0;whiteSpace=wrap;html=1;strokeWidth=2;" vertex="1" parent="1">
          <mxGeometry x="817.5" y="276" width="10" height="10" as="geometry" />
        </mxCell>
        <mxCell id="1DI8FMUEm7F4DSgxxOaH-221" value="" style="rounded=0;whiteSpace=wrap;html=1;strokeWidth=2;" vertex="1" parent="1">
          <mxGeometry x="827.5" y="276" width="10" height="10" as="geometry" />
        </mxCell>
        <mxCell id="1DI8FMUEm7F4DSgxxOaH-222" value="" style="rounded=0;whiteSpace=wrap;html=1;strokeWidth=2;fillColor=#dae8fc;strokeColor=default;" vertex="1" parent="1">
          <mxGeometry x="837.5" y="276" width="10" height="10" as="geometry" />
        </mxCell>
        <mxCell id="1DI8FMUEm7F4DSgxxOaH-223" value="" style="rounded=0;whiteSpace=wrap;html=1;strokeWidth=2;" vertex="1" parent="1">
          <mxGeometry x="812.5" y="261" width="10" height="10" as="geometry" />
        </mxCell>
        <mxCell id="1DI8FMUEm7F4DSgxxOaH-224" value="" style="rounded=0;whiteSpace=wrap;html=1;strokeWidth=2;" vertex="1" parent="1">
          <mxGeometry x="822.5" y="261" width="10" height="10" as="geometry" />
        </mxCell>
        <mxCell id="1DI8FMUEm7F4DSgxxOaH-225" value="" style="rounded=0;whiteSpace=wrap;html=1;strokeWidth=2;" vertex="1" parent="1">
          <mxGeometry x="832.5" y="261" width="10" height="10" as="geometry" />
        </mxCell>
        <mxCell id="1DI8FMUEm7F4DSgxxOaH-226" value="" style="rounded=0;whiteSpace=wrap;html=1;strokeWidth=2;" vertex="1" parent="1">
          <mxGeometry x="812.5" y="271" width="10" height="10" as="geometry" />
        </mxCell>
        <mxCell id="1DI8FMUEm7F4DSgxxOaH-227" value="" style="rounded=0;whiteSpace=wrap;html=1;strokeWidth=2;" vertex="1" parent="1">
          <mxGeometry x="822.5" y="271" width="10" height="10" as="geometry" />
        </mxCell>
        <mxCell id="1DI8FMUEm7F4DSgxxOaH-228" value="" style="rounded=0;whiteSpace=wrap;html=1;strokeWidth=2;" vertex="1" parent="1">
          <mxGeometry x="832.5" y="271" width="10" height="10" as="geometry" />
        </mxCell>
        <mxCell id="1DI8FMUEm7F4DSgxxOaH-229" value="" style="rounded=0;whiteSpace=wrap;html=1;strokeWidth=2;" vertex="1" parent="1">
          <mxGeometry x="812.5" y="281" width="10" height="10" as="geometry" />
        </mxCell>
        <mxCell id="1DI8FMUEm7F4DSgxxOaH-230" value="" style="rounded=0;whiteSpace=wrap;html=1;strokeWidth=2;" vertex="1" parent="1">
          <mxGeometry x="822.5" y="281" width="10" height="10" as="geometry" />
        </mxCell>
        <mxCell id="1DI8FMUEm7F4DSgxxOaH-231" value="" style="rounded=0;whiteSpace=wrap;html=1;strokeWidth=2;fillColor=#dae8fc;strokeColor=default;" vertex="1" parent="1">
          <mxGeometry x="832.5" y="281" width="10" height="10" as="geometry" />
        </mxCell>
        <mxCell id="1DI8FMUEm7F4DSgxxOaH-232" value="" style="rounded=0;whiteSpace=wrap;html=1;strokeWidth=2;" vertex="1" parent="1">
          <mxGeometry x="872.5" y="251" width="10" height="10" as="geometry" />
        </mxCell>
        <mxCell id="1DI8FMUEm7F4DSgxxOaH-233" value="" style="rounded=0;whiteSpace=wrap;html=1;strokeWidth=2;" vertex="1" parent="1">
          <mxGeometry x="882.5" y="251" width="10" height="10" as="geometry" />
        </mxCell>
        <mxCell id="1DI8FMUEm7F4DSgxxOaH-234" value="" style="rounded=0;whiteSpace=wrap;html=1;strokeWidth=2;" vertex="1" parent="1">
          <mxGeometry x="892.5" y="251" width="10" height="10" as="geometry" />
        </mxCell>
        <mxCell id="1DI8FMUEm7F4DSgxxOaH-235" value="" style="rounded=0;whiteSpace=wrap;html=1;strokeWidth=2;" vertex="1" parent="1">
          <mxGeometry x="872.5" y="261" width="10" height="10" as="geometry" />
        </mxCell>
        <mxCell id="1DI8FMUEm7F4DSgxxOaH-236" value="" style="rounded=0;whiteSpace=wrap;html=1;strokeWidth=2;" vertex="1" parent="1">
          <mxGeometry x="882.5" y="261" width="10" height="10" as="geometry" />
        </mxCell>
        <mxCell id="1DI8FMUEm7F4DSgxxOaH-237" value="" style="rounded=0;whiteSpace=wrap;html=1;strokeWidth=2;" vertex="1" parent="1">
          <mxGeometry x="892.5" y="261" width="10" height="10" as="geometry" />
        </mxCell>
        <mxCell id="1DI8FMUEm7F4DSgxxOaH-238" value="" style="rounded=0;whiteSpace=wrap;html=1;strokeWidth=2;" vertex="1" parent="1">
          <mxGeometry x="872.5" y="271" width="10" height="10" as="geometry" />
        </mxCell>
        <mxCell id="1DI8FMUEm7F4DSgxxOaH-239" value="" style="rounded=0;whiteSpace=wrap;html=1;strokeWidth=2;" vertex="1" parent="1">
          <mxGeometry x="882.5" y="271" width="10" height="10" as="geometry" />
        </mxCell>
        <mxCell id="1DI8FMUEm7F4DSgxxOaH-240" value="" style="rounded=0;whiteSpace=wrap;html=1;strokeWidth=2;" vertex="1" parent="1">
          <mxGeometry x="892.5" y="271" width="10" height="10" as="geometry" />
        </mxCell>
        <mxCell id="1DI8FMUEm7F4DSgxxOaH-241" value="" style="rounded=0;whiteSpace=wrap;html=1;strokeWidth=2;" vertex="1" parent="1">
          <mxGeometry x="867.5" y="256" width="10" height="10" as="geometry" />
        </mxCell>
        <mxCell id="1DI8FMUEm7F4DSgxxOaH-242" value="" style="rounded=0;whiteSpace=wrap;html=1;strokeWidth=2;" vertex="1" parent="1">
          <mxGeometry x="877.5" y="256" width="10" height="10" as="geometry" />
        </mxCell>
        <mxCell id="1DI8FMUEm7F4DSgxxOaH-243" value="" style="rounded=0;whiteSpace=wrap;html=1;strokeWidth=2;" vertex="1" parent="1">
          <mxGeometry x="887.5" y="256" width="10" height="10" as="geometry" />
        </mxCell>
        <mxCell id="1DI8FMUEm7F4DSgxxOaH-244" value="" style="rounded=0;whiteSpace=wrap;html=1;strokeWidth=2;" vertex="1" parent="1">
          <mxGeometry x="867.5" y="266" width="10" height="10" as="geometry" />
        </mxCell>
        <mxCell id="1DI8FMUEm7F4DSgxxOaH-245" value="" style="rounded=0;whiteSpace=wrap;html=1;strokeWidth=2;" vertex="1" parent="1">
          <mxGeometry x="877.5" y="266" width="10" height="10" as="geometry" />
        </mxCell>
        <mxCell id="1DI8FMUEm7F4DSgxxOaH-246" value="" style="rounded=0;whiteSpace=wrap;html=1;strokeWidth=2;" vertex="1" parent="1">
          <mxGeometry x="887.5" y="266" width="10" height="10" as="geometry" />
        </mxCell>
        <mxCell id="1DI8FMUEm7F4DSgxxOaH-247" value="" style="rounded=0;whiteSpace=wrap;html=1;strokeWidth=2;" vertex="1" parent="1">
          <mxGeometry x="867.5" y="276" width="10" height="10" as="geometry" />
        </mxCell>
        <mxCell id="1DI8FMUEm7F4DSgxxOaH-248" value="" style="rounded=0;whiteSpace=wrap;html=1;strokeWidth=2;" vertex="1" parent="1">
          <mxGeometry x="877.5" y="276" width="10" height="10" as="geometry" />
        </mxCell>
        <mxCell id="1DI8FMUEm7F4DSgxxOaH-249" value="" style="rounded=0;whiteSpace=wrap;html=1;strokeWidth=2;" vertex="1" parent="1">
          <mxGeometry x="887.5" y="276" width="10" height="10" as="geometry" />
        </mxCell>
        <mxCell id="1DI8FMUEm7F4DSgxxOaH-250" value="" style="rounded=0;whiteSpace=wrap;html=1;strokeWidth=2;" vertex="1" parent="1">
          <mxGeometry x="862.5" y="261" width="10" height="10" as="geometry" />
        </mxCell>
        <mxCell id="1DI8FMUEm7F4DSgxxOaH-251" value="" style="rounded=0;whiteSpace=wrap;html=1;strokeWidth=2;" vertex="1" parent="1">
          <mxGeometry x="872.5" y="261" width="10" height="10" as="geometry" />
        </mxCell>
        <mxCell id="1DI8FMUEm7F4DSgxxOaH-252" value="" style="rounded=0;whiteSpace=wrap;html=1;strokeWidth=2;" vertex="1" parent="1">
          <mxGeometry x="882.5" y="261" width="10" height="10" as="geometry" />
        </mxCell>
        <mxCell id="1DI8FMUEm7F4DSgxxOaH-253" value="" style="rounded=0;whiteSpace=wrap;html=1;strokeWidth=2;" vertex="1" parent="1">
          <mxGeometry x="862.5" y="271" width="10" height="10" as="geometry" />
        </mxCell>
        <mxCell id="1DI8FMUEm7F4DSgxxOaH-254" value="" style="rounded=0;whiteSpace=wrap;html=1;strokeWidth=2;" vertex="1" parent="1">
          <mxGeometry x="872.5" y="271" width="10" height="10" as="geometry" />
        </mxCell>
        <mxCell id="1DI8FMUEm7F4DSgxxOaH-255" value="" style="rounded=0;whiteSpace=wrap;html=1;strokeWidth=2;" vertex="1" parent="1">
          <mxGeometry x="882.5" y="271" width="10" height="10" as="geometry" />
        </mxCell>
        <mxCell id="1DI8FMUEm7F4DSgxxOaH-256" value="" style="rounded=0;whiteSpace=wrap;html=1;strokeWidth=2;" vertex="1" parent="1">
          <mxGeometry x="862.5" y="281" width="10" height="10" as="geometry" />
        </mxCell>
        <mxCell id="1DI8FMUEm7F4DSgxxOaH-257" value="" style="rounded=0;whiteSpace=wrap;html=1;strokeWidth=2;" vertex="1" parent="1">
          <mxGeometry x="872.5" y="281" width="10" height="10" as="geometry" />
        </mxCell>
        <mxCell id="1DI8FMUEm7F4DSgxxOaH-258" value="" style="rounded=0;whiteSpace=wrap;html=1;strokeWidth=2;" vertex="1" parent="1">
          <mxGeometry x="882.5" y="281" width="10" height="10" as="geometry" />
        </mxCell>
        <mxCell id="1DI8FMUEm7F4DSgxxOaH-260" value="Batch normalization" style="text;html=1;align=center;verticalAlign=middle;whiteSpace=wrap;rounded=0;" vertex="1" parent="1">
          <mxGeometry x="660" y="50" width="120" height="30" as="geometry" />
        </mxCell>
        <mxCell id="1DI8FMUEm7F4DSgxxOaH-261" value="Layer normalization" style="text;html=1;align=center;verticalAlign=middle;whiteSpace=wrap;rounded=0;" vertex="1" parent="1">
          <mxGeometry x="800" y="50" width="120" height="30" as="geometry" />
        </mxCell>
        <mxCell id="1DI8FMUEm7F4DSgxxOaH-265" value="" style="endArrow=none;html=1;rounded=0;entryX=0.5;entryY=0;entryDx=0;entryDy=0;exitX=0.5;exitY=1;exitDx=0;exitDy=0;" edge="1" parent="1">
          <mxGeometry width="50" height="50" relative="1" as="geometry">
            <mxPoint x="787.5000000000002" y="310" as="sourcePoint" />
            <mxPoint x="787.5000000000002" y="80" as="targetPoint" />
          </mxGeometry>
        </mxCell>
        <mxCell id="1DI8FMUEm7F4DSgxxOaH-266" value="" style="endArrow=none;html=1;rounded=0;exitX=0.25;exitY=0;exitDx=0;exitDy=0;" edge="1" parent="1" source="1DI8FMUEm7F4DSgxxOaH-268">
          <mxGeometry width="50" height="50" relative="1" as="geometry">
            <mxPoint x="920" y="179" as="sourcePoint" />
            <mxPoint x="640" y="180" as="targetPoint" />
          </mxGeometry>
        </mxCell>
        <mxCell id="1DI8FMUEm7F4DSgxxOaH-267" value="" style="endArrow=none;html=1;rounded=0;entryX=-0.001;entryY=0.432;entryDx=0;entryDy=0;entryPerimeter=0;exitX=0.201;exitY=-0.019;exitDx=0;exitDy=0;exitPerimeter=0;" edge="1" parent="1" source="1DI8FMUEm7F4DSgxxOaH-269">
          <mxGeometry width="50" height="50" relative="1" as="geometry">
            <mxPoint x="920" y="241" as="sourcePoint" />
            <mxPoint x="788.0050000000001" y="240.89000000000001" as="targetPoint" />
          </mxGeometry>
        </mxCell>
        <mxCell id="1DI8FMUEm7F4DSgxxOaH-268" value="Variant A" style="text;html=1;align=center;verticalAlign=middle;whiteSpace=wrap;rounded=0;rotation=90;" vertex="1" parent="1">
          <mxGeometry x="882.5" y="195" width="120" height="30" as="geometry" />
        </mxCell>
        <mxCell id="1DI8FMUEm7F4DSgxxOaH-269" value="Variant B" style="text;html=1;align=center;verticalAlign=middle;whiteSpace=wrap;rounded=0;rotation=90;" vertex="1" parent="1">
          <mxGeometry x="882.5" y="261" width="120" height="30" as="geometry" />
        </mxCell>
      </root>
    </mxGraphModel>
  </diagram>
</mxfile>
